<?xml version="1.0" encoding="UTF-8" standalone="no"?>
<svg
   id="svg136"
   width="840mm"
   height="210mm"
   clip-rule="evenodd"
   fill-rule="evenodd"
   image-rendering="optimizeQuality"
   shape-rendering="geometricPrecision"
   text-rendering="geometricPrecision"
   version="1.1"
   viewBox="0 0 84000 21000"
   sodipodi:docname="splingbee_logo.svg"
   inkscape:export-filename="/Users/roconnor/Desktop/gitclones/timervis/spling_bee_moderator/packages/spling_bee_moderator/src/main/resources/splunk/static/splingbee_logo_2x.png"
   inkscape:export-xdpi="9.6761904"
   inkscape:export-ydpi="9.6761904"
   inkscape:version="1.1.2 (b8e25be8, 2022-02-05)"
   xmlns:inkscape="http://www.inkscape.org/namespaces/inkscape"
   xmlns:sodipodi="http://sodipodi.sourceforge.net/DTD/sodipodi-0.dtd"
   xmlns="http://www.w3.org/2000/svg"
   xmlns:svg="http://www.w3.org/2000/svg">
  <sodipodi:namedview
     id="namedview223"
     pagecolor="#ffffff"
     bordercolor="#666666"
     borderopacity="1.0"
     inkscape:pageshadow="2"
     inkscape:pageopacity="0.0"
     inkscape:pagecheckerboard="0"
     inkscape:document-units="mm"
     showgrid="false"
     inkscape:zoom="0.35498264"
     inkscape:cx="2009.9575"
     inkscape:cy="459.17739"
     inkscape:window-width="1592"
     inkscape:window-height="756"
     inkscape:window-x="0"
     inkscape:window-y="108"
     inkscape:window-maximized="0"
     inkscape:current-layer="svg136" />
  <defs
     id="defs11">
    <rect
       x="935.25701"
       y="5.6340783"
       width="2321.2403"
       height="783.13689"
       id="rect5575" />
    <rect
       x="991.59779"
       y="166.20531"
       width="1580.359"
       height="476.07962"
       id="rect1019" />
    <style
       id="style9"
       type="text/css"><![CDATA[
    .fil0 {fill:none}
    .fil10 {fill:#FEFEFE}
    .fil5 {fill:#FFF8AF}
    .fil4 {fill:#FFDD21}
    .fil3 {fill:#FFCC29}
    .fil9 {fill:#E5AA2D}
    .fil11 {fill:#F8AC92}
    .fil6 {fill:#91D8F7}
    .fil7 {fill:#85C5E2}
    .fil8 {fill:#201E1E}
    .fil1 {fill:#FFCC29;fill-rule:nonzero}
    .fil2 {fill:black;fill-rule:nonzero}
   ]]></style>
  </defs>
  <g
     id="Camada_x0020_1">
    <rect
       id="rect14"
       class="fil0"
       width="21000"
       height="21000" />
    <path
       id="path16"
       class="fil1"
       d="m13007 12527 1560 0.01c9.9-0.02 23 11 31 25l781 1352c7.2 13 8.9 25 4.9 31l-780 1352c-2.1 3.6-5.6 5-9.8 4.6l-1560-0.01c-9.9 0.03-23-11-31-25l-781-1352c-7.3-13-8.9-25-4.9-31l780-1352c2.1-3.6 5.6-5 9.8-4.6zm2450 1421 1560 0.01c9.9-0.02 23 11 31 25l781 1352c7.2 13 8.9 25 4.9 31l-780 1352c-2.1 3.6-5.6 5-9.8 4.6l-1560-0.01c-9.9 0.02-23-11-31-25l-781-1352c-7.3-13-8.9-25-4.9-31l780-1352c2-3.6 5.5-5 9.8-4.6zm807 60-775-0.01-772 1337 755 1307 1538 0.01 772-1337-755-1307zm-10655-60 1560 0.01c9.9-0.02 23 11 31 25l781 1352c7.2 13 8.9 25 4.9 31l-780 1352c-2.1 3.6-5.6 5-9.8 4.6l-1560-0.01c-9.9 0.02-23-11-31-25l-781-1352c-7.3-13-8.9-25-4.9-31l780-1352c2-3.6 5.6-5 9.8-4.6zm807 60-775-0.01-772 1337 755 1307 1538 0.01 772-1337-755-1307zm4125 2798 1560 0.03c9.9-0.03 23 11 31 25l781 1352c7.3 13 8.9 25 4.9 31l-780 1352c-2 3.6-5.6 5-9.8 4.6l-1560-0.02c-9.9 0.03-23-11-31-25l-781-1352c-7.2-13-8.9-25-4.9-31l780-1352c2.1-3.6 5.6-5 9.8-4.6zm807 60-775-0.03-772 1337 755 1307 1538 0.01 772-1337-755-1307zm-807-2918 1560 0.01c9.9-0.02 23 11 31 25l781 1352c7.3 13 8.9 25 4.9 31l-780 1352c-2 3.6-5.6 5-9.8 4.6l-1560-0.01c-9.9 0.02-23-11-31-25l-781-1352c-7.2-13-8.9-25-4.9-31l780-1352c2.1-3.6 5.6-5 9.8-4.6zm807 60-775-0.01-772 1337 755 1307 1538 0.01 772-1337-755-1307zm-3257 1377 1560 0.02c9.9-0.02 23 11 31 25l781 1352c7.2 13 8.9 25 4.9 31l-780 1352c-2.1 3.6-5.6 5-9.8 4.6l-1560-0.02c-9.9 0.02-23-11-31-25l-781-1352c-7.3-13-8.9-25-4.9-31l780-1352c2-3.6 5.5-5 9.8-4.6zm807 60-775-0.02-772 1337 755 1307 1538 0.02 772-1337-755-1307zm-807-2918 1560 0.01c9.9-0.02 23 11 31 25l781 1352c7.2 13 8.9 25 4.9 31l-780 1352c-2.1 3.6-5.6 5-9.8 4.6l-1560-0.01c-9.9 0.03-23-11-31-25l-781-1352c-7.3-13-8.9-25-4.9-31l780-1352c2-3.6 5.5-5 9.8-4.6zm807 60-775-0.01-772 1337 755 1307 1538 0.01 772-1337-755-1307zm4108 2798 1560 0.02c9.9-0.02 23 11 31 25l781 1352c7.2 13 8.9 25 4.9 31l-780 1352c-2.1 3.6-5.6 5-9.8 4.6l-1560-0.02c-9.9 0.02-23-11-31-25l-781-1352c-7.3-13-8.9-25-4.9-31l780-1352c2.1-3.6 5.6-5 9.8-4.6zm807 60-775-0.02-772 1337 755 1307 1538 0.02 772-1337-755-1307zm0-2858-775-0.01-772 1337 755 1307 1538 0.01 772-1337-755-1307z" />
    <path
       id="path18"
       class="fil1"
       d="m1e4 1912 1588 0.02c10-0.03 24 11 32 26l795 1377c7.4 13 9 25 5 31l-795 1376c-2.1 3.6-5.6 5.1-10 4.7l-1588-0.01c-10 0.02-24-11-32-26l-795-1377c-7.4-13-9-25-5-31l795-1376c2.1-3.6 5.6-5.1 10-4.7zm2494 1447 1588 0.02c10-0.03 24 11 32 26l795 1377c7.4 13 9 25 5 31l-795 1376c-2.1 3.6-5.6 5.1-10 4.7l-1588-0.01c-10 0.02-24-11-32-26l-795-1377c-7.4-13-9.1-25-5-31l795-1376c2.1-3.6 5.6-5.1 10-4.7zm822 61-789-0.01-786 1361 768 1331 1566 0.01 786-1361-768-1331zm-10850-61 1588 0.02c10-0.03 24 11 32 26l795 1377c7.4 13 9 25 5 31l-795 1376c-2.1 3.6-5.6 5.1-10 4.7l-1588-0.01c-10 0.02-24-11-32-26l-795-1377c-7.4-13-9-25-5-31l795-1376c2.1-3.6 5.6-5.1 10-4.7zm822 61-789-0.01-786 1361 768 1331 1566 0.01 786-1361-768-1331zm4200 2849 1588 0.02c10-0.02 24 11 32 26l795 1377c7.4 13 9.1 25 5 31l-795 1376c-2.1 3.6-5.6 5.1-10 4.7l-1588-0.01c-10 0.02-24-11-32-26l-795-1377c-7.4-13-9-25-5-31l795-1376c2.1-3.6 5.6-5.1 10-4.7zm822 61-789-0.03-786 1361 768 1331 1566 0.01 786-1361-768-1331zm-822-3e3 1588 0.02c10-0.03 24 11 32 26l795 1377c7.4 13 9.1 25 5 31l-795 1376c-2.1 3.6-5.6 5.1-10 4.7l-1588-0.01c-10 0.02-24-11-32-26l-795-1377c-7.4-13-9-25-5-31l795-1376c2.1-3.6 5.6-5.1 10-4.7zm822 61-789-0.01-786 1361 768 1331 1566 0.01 786-1361-768-1331zm-3317 1402 1588 0.02c10-0.02 24 11 32 26l795 1377c7.4 13 9 25 5 31l-795 1376c-2.1 3.6-5.6 5.1-10 4.7l-1588-0.02c-10 0.02-24-11-32-26l-795-1377c-7.4-13-9.1-25-5-31l795-1376c2.1-3.6 5.6-5.1 10-4.7zm822 61-789-0.03-786 1361 768 1331 1566 0.03 786-1361-768-1331zm-822-3e3 1588 0.02c10-0.03 24 11 32 26l795 1377c7.4 13 9 25 5 31l-795 1376c-2.1 3.6-5.6 5.1-10 4.7l-1588-0.01c-10 0.02-24-11-32-26l-795-1377c-7.4-13-9.1-25-5-31l795-1376c2.1-3.6 5.6-5.1 10-4.7zm822 61-789-0.01-786 1361 768 1331 1566 0.01 786-1361-768-1331zm4183 2849 1588 0.02c10-0.02 24 11 32 26l795 1377c7.4 13 9 25 5 31l-795 1376c-2.1 3.6-5.6 5.1-10 4.7l-1588-0.02c-10 0.02-24-11-32-26l-795-1377c-7.4-13-9-25-5-31l795-1376c2.1-3.6 5.6-5.1 10-4.7zm822 61-789-0.03-786 1361 768 1331 1566 0.03 786-1361-768-1331zm0-2910-789-0.01-786 1361 768 1331 1566 0.01 786-1361-768-1331z" />
    <g
       id="_2060509576896">
      <path
         id="path20"
         class="fil2"
         d="m11924 6500c16 25 18 51 4.3 57-14 6.4-38-8.7-54-34-1.1-1.8-393-600-515-1883-121-1275-38-1422-38-1422 7.6-14 30-8.4 49 13s29 51 22 65c-0.21 0.42-77 134 43 1390 119 1249 488 1812 489 1813z" />
      <path
         id="path22"
         class="fil3"
         d="m11969 1771c582 0 1054 472 1054 1054s-472 1054-1054 1054-1054-472-1054-1054 472-1054 1054-1054z" />
      <path
         id="path24"
         class="fil4"
         d="m12315 1912c385 106 642 389 576 632-67 244-433 356-818 250-385-106-642-389-576-632 67-244 433-356 818-250z" />
      <path
         id="path26"
         class="fil2"
         d="m11925 1678c311 0 598 131 811 344 225 225 364 529 364 858 0 305-122 580-319 777-196 196-467 317-767 317-311 0-598-131-811-344-225-225-364-529-364-858 0-305 122-580 319-777 196-196 467-317 767-317zm768 461c-169-169-409-274-681-274-282 0-538 115-724 301-184 184-298 437-298 714 0 253 97 476 254 633 169 169 409 274 681 274 282 0 538-115 724-301 184-184 298-437 298-714 0-253-97-476-254-633z" />
      <path
         id="path28"
         class="fil5"
         d="m12360 2e3c155 0 281 126 281 281 0 155-126 281-281 281s-281-126-281-281c0-155 126-281 281-281z" />
      <path
         id="path30"
         class="fil2"
         d="m12349 2e3c82 0 159 35 215 91 59 59 96 140 96 227 0 81-32 154-85 206-52 52-124 84-204 84-82 0-159-35-215-91-59-59-96-140-96-227 0-81 32-154 85-206 52-52 124-84 204-84zm204 120c-45-45-110-73-182-73-75 0-144 31-193 80-49 49-80 117-80 191 0 68 26 128 68 170 45 45 110 73 182 73 75 0 144-31 193-80 49-49 80-117 80-191 0-68-26-128-68-170z" />
      <path
         id="path32"
         class="fil6"
         d="m11293 15521c379 1327 3932 1288 2502-818-652-961-1885-415-1885-415z" />
      <path
         id="path34"
         class="fil7"
         d="m11293 15521c105 367 452 629 869 772 1e3 168 2173-331 1253-1685-160-236-355-381-558-465-499-53-947 145-947 145z" />
      <path
         id="path36"
         class="fil2"
         d="m11359 15567c149 452 752 722 1349 769 275 22 549-5.1 778-84 228-79 411-209 509-393 138-261 101-635-237-1133-579-853-1692-410-1794-368zm1415 921c-674-53-1366-396-1537-981-6.6-19-7.8-37-1.7-49l617-1233c2.6-4.9 6.4-8.7 11-11 3.6-1.6 1271-563 2e3 466 391 576 436 1e3 278 1306-104 196-296 334-534 416-236 82-518 109-802 87z" />
      <path
         id="path38"
         class="fil6"
         d="m12284 15105s1686 828 3579-252c1893-1080 2481-2578 1261-3686-1220-1109-5293 1764-5293 1764z" />
      <path
         id="path40"
         class="fil7"
         d="m12284 15105s1686 828 3579-252c362-206 675-428 938-659 489-784 419-1606-326-2283-902-820-3364 537-4585 1300z" />
      <path
         id="path42"
         class="fil2"
         d="m12329 15061c311 131 1811 674 3485-281 520-296 940-624 1252-967 323-355 527-725 602-1091 72-354 23-701-160-1e3 -94-166-226-327-396-482-1138-1e3 -4936 1579-5214 1772zm3582-135c-1867 1065-3537 286-3611 251l-1.8-0.81c-33-15-67-59-75-99l-453-2174c-4.1-20-1.1-36 9.8-44 12-8.2 4096-2889 5355-1745 196 178 349 367 461 563 213 373 273 764 193 1153-77 378-287 757-616 1120-314 346-739 676-1263 975z" />
      <path
         id="path44"
         class="fil6"
         d="m7e3 13959c-3280 237-3618-5168-1163-3279 920 708 1798 2402 1798 2402z" />
      <path
         id="path46"
         class="fil7"
         d="m7e3 13959c-1110 80-1883-486-2324-1197-119-1e3 415-1782 1589-879 446 343 881 917 1212 1418z" />
      <path
         id="path48"
         class="fil2"
         d="m7071 14035c-1310 94-2172-701-2586-1594-218-470-309-966-274-1370 35-404 195-718 480-826 278-106 674-16 1185 377 947 729 1839 2450 1842 2455 16 31 18 59 8.2 73l0.1 0.1-636 877c-4.5 6.1-11 9.2-19 9.5zm-2485-1594c375 808 1169 1527 2398 1442l612-844c-149-278-925-1681-1729-2300-470-361-832-444-1086-347-265 101-415 396-447 775-33 379 51 840 252 1273z" />
      <path
         id="path50"
         class="fil6"
         d="m7383 12781s-2151-487-3e3 -4e3 2e3 -5717 3406-4365 2054 6728 2054 6728z" />
      <path
         id="path52"
         class="fil7"
         d="m7383 12781s-486-110-1081-598c-475-478-982-1257-1271-2517-654-2843 1625-4677 2787-3571 1e3 983 1558 4569 1661 5353z" />
      <path
         id="path54"
         class="fil2"
         d="m7409 12856c-6.4-1.5-2217-502-3e3 -4063-294-1277-111-2387 310-3218 257-507 602-910 982-1185 381-275 797-421 1194-410 356 9.4 700 145 994 424 1461 1391 2099 6798 2101 6814 2.2 18-2.4 31-12 37l-2510 1598c-6.4 4.1-14 4.8-24 2.6zm-2917-4e3c743 3232 2669 3810 2851 3858l2486-1583c-50-407-681-5355-2e3 -6616-257-245-567-364-895-372-385-10-791 132-1163 401-374 270-714 668-967 1168-413 815-593 1901-307 3144z" />
      <polygon
         id="polygon56"
         class="fil8"
         points="7426 14793 5450 14057 7105 14057 7243 14410" />
      <path
         id="path58"
         class="fil2"
         d="m7306 14413 182 378c25 52 18 95-16 96-7.4 0.21-16-1.6-24-5.1l-2e3 -734c-40-15-83-67-96-117-11-43 2.7-69 32-67h1651c34-0.07 82 42 106 93l4.6 11zm-3 253-122-255-5.2-12-97-248h-1160z" />
      <path
         id="path60"
         class="fil3"
         d="m12236 12340c556-162 1156 222 1341 857 85 293 489 2177-414 2440-917 267-1502-1524-1598-1854-185-635 115-1281 671-1443z" />
      <path
         id="path62"
         class="fil9"
         d="m12236 12340c22-6.5 44-12 67-17-266 286-373 734-244 1177 91 313 621 1939 1458 1879-86 122-201 212-353 257-917 267-1502-1524-1598-1854-185-635 115-1281 671-1443z" />
      <path
         id="path64"
         class="fil2"
         d="m12232 12285c318-93 639-35 901 132 249 159 450 419 544 742l0.27-0.11c0.79 2.1 1.3 4.2 1.6 6.4 44 154 165 697 163 1235-1.4 566-146 1132-668 1289-5.5 1.9-11 3.5-16 4.8-383 108-699-72-950-363-422-490-684-1301-746-1513-95-325-65-654 61-924 134-289 381-515 708-610zm725 238c-223-143-480-196-717-127-229 67-410 244-518 477-118 253-145 564-55 874 61 210 320 1e3 735 1492 222 258 480 422 757 342l0.29-0.08c374-109 477-613 479-1125 1.3-533-118-1068-161-1219l-0.87-2.1 0.24-0.14-0.51-1.8c-90-310-282-559-518-710z" />
      <path
         id="path66"
         class="fil3"
         d="m9894 10870c1659 0 3e3 1204 3e3 2689 0 1485-1345 2689-3e3 2689-1659 0-3e3 -1204-3e3 -2689 0-1485 1345-2689 3e3 -2689z" />
      <path
         id="path68"
         class="fil9"
         d="m12722 14467c-416 1e3 -1525 1781-2828 1781-1220 0-2270-652-2741-1587 416-1e3 1525-1781 2828-1781 1220 0 2270 652 2741 1587z" />
      <path
         id="path70"
         class="fil2"
         d="m9850 10776c847 0 1619 312 2182 816 582 521 942 1236 942 2e3 0 757-341 1441-891 1934-548 491-1307 795-2144 795-847 0-1619-312-2182-816-582-521-942-1236-942-2e3 0-757 341-1441 891-1934 548-491 1307-795 2144-795zm2154 947c-524-469-1254-760-2066-760-821 0-1565 298-2103 781-536 480-868 1141-868 1869 0 700 312 1330 818 1782 524 469 1254 760 2066 760 821 0 1565-298 2103-781 536-480 868-1141 868-1869 0-700-312-1330-818-1782z" />
      <path
         id="path72"
         class="fil8"
         d="m9894 10870c1659 0 3e3 1204 3e3 2689 0 1102-740 2e3 -1799 2464-243 65-498 100-761 100-1712 0-3100-1474-3100-3292 0-210 19-416 54-615 519-805 1490-1347 2603-1347z" />
      <path
         id="path74"
         class="fil2"
         d="m9872 10823c838 0 1599 306 2153 802 563 504 911 1198 911 2e3 0 548-181 1058-491 1483-320 438-777 788-1318 1e3 -1.2 0.48-2.5 0.79-3.8 0.97-123 33-249 58-377 75-127 17-256 25-386 25-1745 0-3160-1507-3160-3366 0-106 4.6-210 14-312 9.2-105 23-208 41-309 0.7-3.9 2.1-7 4.1-9.3 265-411 648-753 1107-991 443-229 958-361 1508-361zm2139 867c-534-478-1274-774-2095-774-544 0-1053 130-1493 357-454 235-833 573-1095 979-17 99-31 199-40 299-8.9 101-13 203-13 306 0 1777 1361 3218 3e3 3218 129 0 257-8.5 382-25 127-17 251-42 373-74l0.33-0.14c535-210 989-556 1306-990 306-419 484-919 484-1455 0-721-324-1373-849-1842z" />
      <path
         id="path76"
         class="fil3"
         d="m9894 10870c1659 0 3e3 1204 3e3 2689 0 529-171 1e3 -466 1439-349 144-728 224-1125 224-1712 0-3100-1474-3100-3292 0-215 20-425 57-629 470-272 1e3 -431 1631-431z" />
      <path
         id="path78"
         class="fil9"
         d="m12722 14467c-75 187-173 365-290 531-349 144-728 224-1125 224-1271 0-2363-812-2842-2e3 445-234 963-368 1516-368 1220 0 2270 652 2741 1587z" />
      <path
         id="path80"
         class="fil2"
         d="m9850 10776c847 0 1619 312 2182 816 582 521 942 1236 942 2e3 0 267-42 524-121 767-81 250-200 485-352 699-3.9 5.5-9.2 9.1-15 11-178 73-363 130-554 168-187 37-381 57-581 57-1779 0-3220-1540-3220-3440 0-109 4.9-217 14-322 9.7-107 24-213 43-318 2.3-13 8.4-21 17-25 240-139 504-249 785-323 273-72 561-111 860-111zm2154 947c-524-469-1254-760-2066-760-292 0-575 38-842 108-272 72-528 177-761 311-17 95-30 192-39 291-9.2 103-14 206-14 310 0 1737 1334 3144 3e3 3144 192 0 382-19 566-56 186-37 366-92 538-162 146-207 261-433 338-673 75-233 116-478 116-732 0-700-312-1330-818-1782z" />
      <path
         id="path82"
         class="fil2"
         d="m14593 6860c-1.8 16-24 19-50 5.1-26-14-45-38-43-54 55-498 391-896 816-1199 665-474 1548-716 1897-738 20-1.3 49 15 65 36 16 21 13 40-6.7 41-344 22-1216 261-1874 731-419 299-750 690-804 1178z" />
      <path
         id="path84"
         class="fil3"
         d="m1e4 11258c164 555-217 1157-851 1344-293 87-2175 498-2442-404-271-916 1517-1508 1847-1606 634-188 1281 110 1445 665z" />
      <path
         id="path86"
         class="fil9"
         d="m1e4 11284c145 548-234 1134-858 1318-293 87-2175 498-2442-404-56-189-24-365 65-525 344 806 2131 416 2415 331 395-117 692-394 820-721z" />
      <path
         id="path88"
         class="fil2"
         d="m1e4 11261c91 316 35 634-130 895-158 249-417 452-740 548l0.09 0.27c-2.1 0.79-4.2 1.3-6.3 1.6-154 45-696 168-1234 169-566 0.96-1132-141-1292-662-2-5.9-3.7-12-5.1-17-147-517 243-919 714-1204 456-275 986-448 1153-498l-0.09-0.26c2.2-0.81 4.3-1.3 6.4-1.6 323-94 651-65 919 58 288 132 514 376 611 699 1.4 4.4 2.7 8.8 3.9 13zm-237 720c142-224 194-481 124-718l-0.11-0.35c-68-228-246-409-480-516-252-116-562-143-870-52l-2 0.84-0.19-0.22-1.7 0.5c-164 49-691 220-1143 493-434 263-801 611-686 1e3l1.3 4.3c112 371 615 472 1126 472 533-0.88 1068-122 1219-166l2-0.87 0.14 0.25 1.8-0.53c310-92 558-284 708-521z" />
      <path
         id="path90"
         class="fil3"
         d="m12586 6e3c2206-76 4e3 1722 4e3 4e3s-1788 4214-4e3 4289c-2206 76-4e3 -1722-4e3 -4e3s1788-4214 4e3 -4289z" />
      <path
         id="path92"
         class="fil9"
         d="m16545 10619c-261 2e3 -1934 3664-4e3 3734-2206 76-4e3 -1722-4e3 -4e3 0-1819 1125-3403 2691-4e3 -1e3 693-1752 1913-1752 3280 0 2074 1617 3699 3612 3631 1569-54 2904-1140 3403-2610z" />
      <path
         id="path94"
         class="fil2"
         d="m12516 5902c42-1.4 88-2.2 136-2.2 1079 0 2061 444 2788 1173 744 746 1217 1774 1256 2920 1.8 52 2.7 104 2.7 155 0 1168-453 2238-1185 3e3 -730 785-1741 1289-2857 1327-42 1.4-88 2.2-136 2.2-1079 0-2061-444-2788-1173-744-746-1217-1774-1256-2920-1.8-52-2.7-104-2.7-155 0-1168 453-2238 1185-3e3 730-785 1741-1289 2857-1327zm273 290c-41 0-85 0.82-132 2.4-1089 37-2076 531-2791 1299-713 766-1155 1803-1155 2929 0 49 0.83 98 2.5 146 35 1e3 444 1935 1085 2578 659 661 1568 1063 2585 1063 41 0 85-0.82 132-2.4 1089-37 2076-531 2791-1299 713-766 1155-1803 1155-2929 0-49-0.84-98-2.5-146-35-1e3 -444-1935-1085-2578-659-661-1568-1063-2585-1063z" />
      <path
         id="path96"
         class="fil4"
         d="m13485 6467c1717 240 3e3 1714 2815 3293-162 1578-1686 2663-3404 2423-1717-240-3e3 -1714-2815-3293s1686-2663 3404-2423z" />
      <path
         id="path98"
         class="fil8"
         d="m12614 7780c347 0 628 291 628 651 0 359-281 651-628 651s-628-291-628-651c0-359 281-651 628-651z" />
      <path
         id="path100"
         class="fil10"
         d="m12429 7891c131 0 237 110 237 246s-106 246-237 246-237-110-237-246 106-246 237-246z" />
      <path
         id="path102"
         class="fil10"
         d="m12846 8777c38 0 69 32 69 71s-31 71-69 71-69-32-69-71 31-71 69-71z" />
      <path
         id="path104"
         class="fil8"
         d="m14689 7877c184 0 374 320 425 715 51 395-57 715-241 715s-374-320-425-715c-51-395 57-715 241-715z" />
      <path
         id="path106"
         class="fil10"
         d="m14766 8e3c68-9.4 155 100 194 244s15 268-53 278-155-100-194-244c-39-144-15-268 53-278z" />
      <path
         id="path108"
         class="fil10"
         d="m14679 9e3c25-3.5 57 37 72 90 14 53 5.6 99-20 102-25 3.4-57-37-72-90-14-53-5.6-99 20-102z" />
      <path
         id="path110"
         class="fil2"
         d="m11517 1e4c-4.7-45 25-62 67-37 42 25 79 82 84 127 0.15 1.4 46 504 684 910 668 425 971 10 972 8.8 19-25 64-7.9 102 38 38 45 53 102 34 127-0.99 1.3-342 468-1098-13-785-500-846-1158-846-1160z" />
      <path
         id="path112"
         class="fil3"
         d="m17409 3326c551-189 1151 104 1340 655 189 551-104 1151-655 1340-551 189-1151-104-1340-655-189-551 104-1151 655-1340z" />
      <path
         id="path114"
         class="fil2"
         d="m17354 3234c286-98 588-70 844 56 279 137 508 384 619 708 103 301 77 609-48 865-122 249-339 452-621 549-286 98-588 70-844-56-279-137-508-384-619-708-103-301-77-609 48-865 122-249 339-452 621-549zm877 228c-228-112-502-135-767-44-268 92-474 284-589 519-112 229-138 496-52 746 78 226 243 401 449 502 228 112 502 135 767 44 268-92 474-284 589-519 112-229 138-496 52-746-78-226-244-401-449-502z" />
      <path
         id="path116"
         class="fil2"
         d="m11409 7071c13 48-6.6 77-45 64-39-13-83-64-98-114l-2-7.5c-5.5-22-3.6-40 4-51 14-56 56-140 138-222 106-106 279-228 541-315 37-12 78-24 123-36 30-8 78 27 107 78 29 51 28 99-1.7 107-39 10-79 22-119 36-253 84-420 201-520 302-92 92-130 150-127 160z" />
      <path
         id="path118"
         class="fil2"
         d="m15126 7318c4.8 45-25 62-67 37-42-25-79-81-84-127-0.04-0.46-16-163-299-295-41-19-82-73-92-121-9.9-48 15-72 56-53 451 210 486 558 486 559z" />
      <path
         id="path120"
         class="fil11"
         d="m10722 8511c374 0 676 303 676 676 0 374-303 676-676 676-374 0-676-303-676-676 0-374 303-676 676-676z" />
      <path
         id="path122"
         class="fil2"
         d="m10744 8558c21 0.07 41 1 62 2.9 27 1.8 18-35 9.8-50-8.4-17-30-43-50-44-34-3-69-3.9-103-2-26 1.8-12 42-3.7 55 9 15 31 40 50 39 11-0.8 23-0.89 35-0.93zm-202 31c22-6.7 5.6-45-2.5-58-9-14-33-40-52-35-18 5.8-36 12-53 20-22 9-2.6 50 7 62 8.6 13 33 36 50 29 17-6.9 34-13 51-19zm-190 97c19-15-4.9-58-18-71-8.6-9.7-32-28-45-18-15 11-29 22-43 35-26 24 36 109 64 87 13-11 28-23 41-33zm-150 153c14-20-12-60-28-74-9.8-8.6-31-22-41-7.8-9.7 13-24 35-32 49-13 22 15 63 33 76 9.8 8.1 30 17 38 3.3 9.3-16 19-32 30-47zm-69-82-32 49 71 79zm-29 293c9.4-35-49-101-71-77-2 2.5-2.9 4.4-3.8 7.5-5.8 23-11 45-14 68-5.8 46 67 108 76 64 3.4-21 7.8-42 13-63zm-10 281c-4.3-23-22-47-41-59-23-13-38-2.7-33 23 6.3 33 15 66 26 98 7.8 21 34 60 60 56 17-3.8 13-25 9.4-38-8.9-26-16-53-21-80zm162 307c-14-14-44-31-48 0.17-1.2 20 14 46 28 59 26 26 55 51 85 72 35 25 48-4.5 32-37-6.1-14-19-30-31-39-23-17-45-36-66-56zm271 155c-46-11-16 78 31 92 24 6.5 47 12 72 16 44 5.4 8.2-85-37-93-22-3.9-44-8.3-65-14zm248 19c-26 3.7-9.6 44-1.4 57 8.5 14 32 39 50 36 20-2.2 39-5.5 59-9.4 25-5.7 6.7-48-3.2-62-8.8-13-31-35-48-32-19 3.8-37 6.9-56 9zm211-61c-20 9.8-2.5 47 6.6 60 8.8 13 34 39 52 30 17-8 33-17 49-26 20-13-2.1-55-14-68-8.8-10-32-31-46-22-15 9-31 17-47 25zm173-122c-15 15 3.9 51 15 64 9 11 36 36 50 21 13-13 27-27 39-41 15-17-7.9-55-20-69-9.4-11-34-29-47-15-12 14-24 26-37 39zm130-177c-17 36 52 110 71 78 9.4-19 18-38 26-57 9.7-27-24-74-50-83-9.2-2.9-19-2-23 8.2-7.4 18-15 36-24 54zm67-239c-1.7 29 32 79 62 77 9-1.4 13-8.2 14-17 2.1-26 2.9-53 2-79-1.4-27-33-75-62-73-11 1.6-15 11-14 21 0.71 24 0 48-1.9 71zm-53-308c8.7 19 36 54 60 46 16-7.2 8.4-33 2.8-45-17-37-37-73-60-107-9.2-15-45-50-59-25-7.8 16 3.5 39 12 52 17 26 31 51 44 78zm-232-257c13 8.1 30 9.3 33-8.7 3.6-27-20-60-42-74-26-15-53-29-80-41-16-6.9-28-1.1-28 17 0 26 24 61 48 71 24 11 47 22 69 36z" />
      <path
         id="path124"
         class="fil11"
         d="m16144 9517c160 6.9 277 315 260 688-16 373-159 670-319 663-160-6.9-277-315-260-688 16-373 159-670 319-663z" />
      <path
         id="path126"
         class="fil2"
         d="m16123 9470c-24-1.6-17 32-11 45 8.5 19 31 47 53 49 19 1 36 6.5 52 17 30 20 43-4.9 32-33-5.9-18-21-37-36-47-27-18-57-29-89-31zm-56 133c27-24-36-110-64-87-15 13-28 26-40 41-16 20 14 65 31 78 9 7.5 28 17 37 5.6 11-13 23-26 36-38zm-120 185c14-40-57-111-73-75-7.9 20-15 40-22 60-12 34 50 106 71 77 0.99-1.6 1.5-2.8 2.1-4.5 6.5-19 13-38 21-57zm-66 247c5-27-27-72-53-78-12-3.2-20 1.9-22 14-3.5 24-6.9 47-9.6 71-3.3 28 32 80 62 78 9-1.3 13-7.2 14-16 2.6-23 6-45 9.3-68zm-18 287c-1.5-28-32-73-61-73-11 0.87-16 11-15 21 0.8 28 2.5 55 4.8 82 2.7 27 33 73 62 70 11-1.7 15-13 13-23-2.3-26-3.8-52-4.5-78zm53 324c-7.8-21-32-56-57-56-20 1.4-17 24-12 38 12 36 28 73 46 107 9.1 17 26 37 45 42 32 6 22-34 13-51-13-25-25-53-34-80zm178 173c-24 5.5-6.5 47 2.5 60 9.2 14 31 37 50 33 19-4.1 39-13 55-23 19-12-1.9-52-12-65-9.2-12-33-34-49-24-13 8.8-30 16-46 20zm150-140c-11 20 12 59 28 72 10 9.4 33 23 43 7 10-18 19-36 28-54 11-23-17-64-37-77-10-7.4-29-14-35 0.68-8.1 18-17 35-26 52zm85-227c-9.3 35 50 102 72 76 1.6-2.5 2.2-3.9 3-6.8 5.2-22 11-45 14-67 5.4-29-35-87-64-79-6.4 2.1-9.5 6.8-11 13-4.5 22-8.6 43-14 64zm38-272c-1.5 28 33 78 62 76 9.7-1.5 13-8.8 14-18 1.1-26 1.7-52 1.6-78 0-27-36-81-65-73-8.4 2.8-11 11-11 19 0.11 25-0.55 49-1.6 74zm-19-310c4.7 25 34 67 61 65 14-2 15-17 13-29-5.8-32-13-62-21-93-6.3-23-35-64-62-60-15 3.4-14 22-10 33 7.5 28 14 55 19 83z" />
      <path
         id="path128"
         class="fil4"
         d="m18046 3402c385 106 642 389 576 632-67 244-433 356-818 250s-642-389-576-632c67-244 433-356 818-250z" />
      <path
         id="path130"
         class="fil5"
         d="m18144 3516c155 0 281 126 281 281 0 155-126 281-281 281-155 0-281-126-281-281 0-155 126-281 281-281z" />
      <path
         id="path132"
         class="fil2"
         d="m18133 3492c82 0 159 35 215 91 59 59 96 140 96 227 0 81-32 154-85 206-52 52-124 84-204 84-82 0-159-35-215-91-59-59-96-140-96-227 0-81 32-154 85-206 52-52 124-84 204-84zm204 120c-45-45-110-73-182-73-75 0-144 31-193 80-49 49-80 117-80 191 0 68 26 128 68 170 45 45 110 73 182 73 75 0 143-31 193-80 49-49 80-117 80-191 0-68-26-128-68-170z" />
    </g>
  </g>
  <text
     xml:space="preserve"
     transform="matrix(26.458333,0,0,26.458333,-3354.0372,3204.9689)"
     id="text5573"
     style="font-size:450.333px;line-height:1.25;font-family:sans-serif;white-space:pre;shape-inside:url(#rect5575)"><tspan
       x="935.25781"
       y="416.48722"
       id="tspan9948"><tspan
         dx="0 0 0 0 0 -0.00010681152 0 0 -0.00012207031"
         style="fill:#ffffff"
         id="tspan9946">Moderator</tspan></tspan></text>
</svg>
